<svg fill="none" height="800" viewBox="0 0 800 800" width="800" xmlns="http://www.w3.org/2000/svg" xmlns:xlink="http://www.w3.org/1999/xlink"><clipPath id="a"><path d="m0 0h800v800h-800z"/></clipPath><clipPath id="b"><path d="m197 226h380v380h-380z"/></clipPath><g clip-path="url(#a)"><path d="m766.667 400c0 97.246-38.631 190.509-107.394 259.273-68.764 68.763-162.027 107.394-259.273 107.394s-190.509-38.631-259.272-107.394c-68.7638-68.764-107.3947-162.027-107.3947-259.273-.0282-28.059 3.216-56.026 9.6667-83.333 18.8655-80.525 64.401-152.307 129.21-203.687 64.809-51.3804 145.085-79.3412 227.79-79.3412s162.981 27.9608 227.79 79.3412c64.809 51.38 110.344 123.162 129.21 203.687 6.451 27.307 9.695 55.274 9.667 83.333z" fill="#da3380"/><path d="m400 600c197.166 0 357-126.853 357-283.333 0-156.481-159.834-283.3336-357-283.3336s-357 126.8526-357 283.3336c0 156.48 159.834 283.333 357 283.333z" fill="#f55fa6"/><path d="m400 800c79.113 0 156.448-23.459 222.228-67.412s117.049-106.424 147.324-179.514c30.275-73.091 38.196-153.518 22.762-231.11s-53.53-148.866-109.471-204.807c-55.941-55.9405-127.214-94.0368-204.807-109.47093-77.592-15.43409-158.019-7.512756-231.109 22.76233-73.091 30.275-135.562 81.5436-179.5148 147.3236-43.9526 65.78-67.4122 143.116-67.4122 222.228.114703 106.052 42.2943 207.727 117.284 282.716 74.99 74.99 176.665 117.169 282.716 117.284zm0-733.3332c65.927 0 130.374 19.5497 185.19 56.1772 54.816 36.627 97.541 88.686 122.77 149.595s31.83 127.931 18.968 192.591c-12.861 64.661-44.608 124.055-91.226 170.672-46.617 46.618-106.012 78.365-170.672 91.227-64.66 12.861-131.682 6.26-192.591-18.969s-112.968-67.953-149.596-122.77c-36.6267-54.816-56.1763-119.263-56.1763-185.19.097-88.376 35.2473-173.104 97.7383-235.595s147.219-97.6411 235.595-97.7382z" fill="#6c2e7c"/><g clip-path="url(#b)"><path d="m471.582 231.019c-7.883-3.977-16.722-5.666-25.515-4.874-8.794.792-17.189 4.033-24.234 9.355l-135.105 101.333h-26.395c-12.597 0-24.679 5.005-33.587 13.913s-13.913 20.99-13.913 33.587v63.334c0 12.597 5.005 24.679 13.913 33.587s20.99 13.913 33.587 13.913h26.395l135.105 101.333c7.057 5.293 15.449 8.516 24.235 9.308 8.785.792 17.618-.878 25.508-4.823s14.526-10.009 19.163-17.513c4.638-7.504 7.094-16.151 7.094-24.972v-79.167c16.797 0 32.906-6.672 44.784-18.55 11.877-11.877 18.55-27.986 18.55-44.783s-6.673-32.906-18.55-44.783c-11.878-11.878-27.987-18.55-44.784-18.55v-79.167c.029-8.826-2.415-17.484-7.054-24.992-4.64-7.508-11.29-13.567-19.197-17.489zm-227.082 216.648v-63.334c0-4.199 1.668-8.226 4.637-11.196 2.97-2.969 6.997-4.637 11.196-4.637h15.834v95h-15.834c-4.199 0-8.226-1.668-11.196-4.637-2.969-2.97-4.637-6.997-4.637-11.196zm221.667 110.833c0 2.94-.819 5.823-2.365 8.324s-3.758 4.523-6.388 5.838-5.574 1.871-8.503 1.607c-2.928-.264-5.725-1.338-8.078-3.102l-133-99.75v-110.834l133-99.75c2.353-1.764 5.15-2.838 8.078-3.102 2.929-.264 5.873.292 8.503 1.607s4.842 3.337 6.388 5.838 2.365 5.384 2.365 8.324zm63.333-142.5c0 8.398-3.336 16.453-9.275 22.392-5.939 5.938-13.993 9.275-22.392 9.275v-63.334c8.399 0 16.453 3.337 22.392 9.275 5.939 5.939 9.275 13.993 9.275 22.392z" fill="#6c2e7c"/></g></g></svg>