<svg height="800" viewBox="0 0 24 24" width="800" xmlns="http://www.w3.org/2000/svg"><path d="m23 12a11 11 0 0 1 -22 0 10.827 10.827 0 0 1 .29-2.5 11 11 0 0 1 21.42 0 10.827 10.827 0 0 1 .29 2.5z" fill="#da3380"/><ellipse cx="12" cy="9.5" fill="#f55fa6" rx="10.71" ry="8.5"/><g fill="#6c2e7c"><path d="m12 24a12 12 0 1 0 -12-12 12.013 12.013 0 0 0 12 12zm0-22a10 10 0 1 1 -10 10 10.011 10.011 0 0 1 10-10z"/><path d="m6 13h9.586l-2.293 2.293a1 1 0 1 0 1.414 1.414l4-4a1 1 0 0 0 0-1.414l-4-4a1 1 0 1 0 -1.414 1.414l2.293 2.293h-9.586a1 1 0 0 0 0 2z"/></g></svg>